<svg width="11" height="11" viewBox="0 0 11 11" fill="none" xmlns="http://www.w3.org/2000/svg">
<path d="M5.5 10C7.98528 10 10 7.98528 10 5.5C10 3.01472 7.98528 1 5.5 1C3.01472 1 1 3.01472 1 5.5C1 7.98528 3.01472 10 5.5 10Z" stroke="#E6180D"/>
<path d="M5.30005 3.1001H5.70005L5.50005 6.0001L5.30005 3.1001Z" stroke="#E6180D" stroke-linejoin="round"/>
<path d="M5.4999 8.3001C5.83127 8.3001 6.0999 8.03147 6.0999 7.7001C6.0999 7.36873 5.83127 7.1001 5.4999 7.1001C5.16853 7.1001 4.8999 7.36873 4.8999 7.7001C4.8999 8.03147 5.16853 8.3001 5.4999 8.3001Z" fill="#E6180D"/>
</svg>
